{"glyphs":{"0":{"ha":836,"x_min":125,"x_max":711,"o":"m 395 783 q 327 774 350 781 q 288 745 298 766 q 259 632 269 708 q 250 435 250 557 q 258 256 250 329 q 281 147 265 182 q 319 106 293 117 q 395 94 341 96 l 395 -12 q 281 3 325 -10 q 203 52 229 18 q 144 197 164 100 q 125 435 125 294 q 145 674 125 576 q 203 821 165 772 q 281 869 229 854 q 395 885 325 883 l 395 783 m 429 94 q 503 102 477 95 q 543 125 530 109 q 575 229 565 152 q 586 435 586 306 q 577 633 586 557 q 549 745 568 709 q 509 774 538 766 q 429 783 484 783 l 429 885 q 544 873 497 884 q 621 835 595 860 q 688 691 665 793 q 711 435 711 589 q 692 195 711 289 q 632 49 672 100 q 555 3 608 18 q 429 -12 507 -11 l 429 94 z "},"1":{"ha":836,"x_min":199,"x_max":536,"o":"m 410 732 l 199 547 l 199 701 l 404 871 l 536 871 l 536 0 l 410 0 l 410 732 z "},"2":{"ha":836,"x_min":153,"x_max":684,"o":"m 330 421 l 429 488 q 527 574 500 536 q 554 660 554 612 q 512 749 554 713 q 407 785 471 785 q 303 761 361 785 q 170 686 246 737 l 170 822 q 278 869 220 854 q 401 885 335 885 q 608 821 532 885 q 684 646 684 756 q 644 517 684 574 q 514 400 604 459 l 433 347 q 316 244 348 291 q 285 138 285 198 l 285 113 l 669 113 l 669 7 l 155 7 q 153 27 153 17 q 153 58 153 38 q 193 274 153 194 q 330 421 233 355 z "},"3":{"ha":836,"x_min":135,"x_max":689,"o":"m 135 157 q 248 111 193 125 q 359 96 303 96 q 506 146 450 96 q 561 278 561 196 q 502 402 561 362 q 317 441 443 441 q 300 440 315 441 q 273 439 286 439 l 272 526 l 505 765 l 135 765 l 135 871 l 657 871 l 657 751 l 433 528 q 621 454 553 523 q 689 271 689 385 q 598 64 689 140 q 351 -12 508 -12 q 248 -1 302 -12 q 135 32 194 9 l 135 157 z "},"4":{"ha":836,"x_min":138,"x_max":703,"o":"m 472 196 l 138 196 l 138 325 l 397 878 l 522 878 l 252 302 l 472 302 l 472 486 l 589 486 l 589 302 l 703 302 l 703 196 l 589 196 l 589 0 l 472 0 l 472 196 z "},"5":{"ha":836,"x_min":174,"x_max":667,"o":"m 204 871 l 640 871 l 640 766 l 313 766 l 303 586 q 326 587 313 587 q 363 587 338 587 q 582 509 496 587 q 667 307 667 431 q 545 75 667 159 q 207 -9 422 -9 l 174 -9 l 174 98 q 191 97 182 98 q 220 97 201 97 q 457 154 373 97 q 542 314 542 211 q 484 438 542 393 q 322 484 425 484 q 260 480 296 484 q 176 471 224 477 l 204 871 z "},"6":{"ha":836,"x_min":125,"x_max":711,"o":"m 403 452 q 296 405 336 448 q 250 277 250 357 q 296 147 250 195 q 403 99 337 104 l 403 -9 q 205 73 281 -4 q 125 294 125 156 q 210 567 125 425 q 475 878 294 708 l 633 878 q 480 725 553 807 q 334 538 408 643 q 387 553 359 548 q 403 555 395 555 l 403 452 m 440 99 q 543 147 504 104 q 586 281 586 195 q 541 407 586 360 q 440 452 503 446 l 440 558 l 441 558 q 634 479 557 558 q 711 282 711 401 q 631 72 711 153 q 440 -9 556 -3 l 440 99 z "},"7":{"ha":836,"x_min":135,"x_max":705,"o":"m 258 113 q 300 361 258 247 q 429 579 342 475 l 493 656 q 547 727 534 705 q 559 764 559 748 l 559 768 l 135 768 l 135 871 l 705 871 l 705 831 q 601 607 705 733 q 582 585 589 593 l 522 513 q 413 328 448 422 q 378 119 378 233 l 378 0 l 258 0 l 258 113 z "},"8":{"ha":836,"x_min":125,"x_max":711,"o":"m 392 411 q 289 338 321 375 q 250 237 250 296 q 295 133 250 171 q 392 96 332 101 l 392 -12 q 201 52 271 -6 q 125 233 125 117 q 168 374 125 315 q 307 486 210 433 q 202 581 237 531 q 167 688 167 631 q 235 831 167 777 q 392 883 295 878 l 392 778 q 322 753 349 773 q 286 684 286 727 q 320 607 286 642 q 392 557 347 579 l 392 411 m 429 94 q 542 133 500 97 q 586 237 586 171 q 548 338 586 295 q 429 418 512 378 l 429 551 q 516 608 485 576 q 550 681 550 642 q 515 753 550 727 q 429 779 484 777 l 429 884 q 602 831 536 881 q 669 693 669 779 q 635 582 669 633 q 529 486 600 531 q 670 372 628 433 q 711 225 711 312 q 635 50 711 112 q 429 -12 562 -9 l 429 94 z "},"9":{"ha":836,"x_min":126,"x_max":713,"o":"m 389 780 q 296 734 331 772 q 252 600 252 686 q 297 475 252 521 q 389 430 333 437 l 389 321 q 203 399 277 323 q 126 599 126 477 q 205 807 126 728 q 389 884 277 877 l 389 780 m 435 429 q 542 477 500 433 q 587 606 587 525 q 541 734 587 685 q 435 781 500 777 l 435 884 q 633 805 559 880 q 713 586 713 724 q 632 325 713 464 q 371 0 551 185 l 205 0 q 377 182 304 98 q 504 343 451 267 q 452 326 479 332 q 435 323 444 324 l 435 429 z "},"~":{"ha":836,"x_min":71,"x_max":765,"o":"m 71 -245 l 71 979 l 765 979 l 765 -245 l 71 -245 m 149 -168 l 688 -168 l 688 901 l 149 901 l 149 -168 z "},"":{"ha":836,"x_min":71,"x_max":765,"o":"m 71 -245 l 71 979 l 765 979 l 765 -245 l 71 -245 m 149 -168 l 688 -168 l 688 901 l 149 901 l 149 -168 z "},"¡":{"ha":836,"x_min":71,"x_max":765,"o":"m 71 -245 l 71 979 l 765 979 l 765 -245 l 71 -245 m 149 -168 l 688 -168 l 688 901 l 149 901 l 149 -168 z "},"¢":{"ha":836,"x_min":71,"x_max":765,"o":"m 71 -245 l 71 979 l 765 979 l 765 -245 l 71 -245 m 149 -168 l 688 -168 l 688 901 l 149 901 l 149 -168 z "},"¦":{"ha":836,"x_min":71,"x_max":765,"o":"m 71 -245 l 71 979 l 765 979 l 765 -245 l 71 -245 m 149 -168 l 688 -168 l 688 901 l 149 901 l 149 -168 z "},"¶":{"ha":836,"x_min":71,"x_max":765,"o":"m 71 -245 l 71 979 l 765 979 l 765 -245 l 71 -245 m 149 -168 l 688 -168 l 688 901 l 149 901 l 149 -168 z "},"·":{"ha":836,"x_min":71,"x_max":765,"o":"m 71 -245 l 71 979 l 765 979 l 765 -245 l 71 -245 m 149 -168 l 688 -168 l 688 901 l 149 901 l 149 -168 z "},"Ã":{"ha":836,"x_min":71,"x_max":765,"o":"m 71 -245 l 71 979 l 765 979 l 765 -245 l 71 -245 m 149 -168 l 688 -168 l 688 901 l 149 901 l 149 -168 z "},"Ð":{"ha":836,"x_min":71,"x_max":765,"o":"m 71 -245 l 71 979 l 765 979 l 765 -245 l 71 -245 m 149 -168 l 688 -168 l 688 901 l 149 901 l 149 -168 z "},"Õ":{"ha":836,"x_min":71,"x_max":765,"o":"m 71 -245 l 71 979 l 765 979 l 765 -245 l 71 -245 m 149 -168 l 688 -168 l 688 901 l 149 901 l 149 -168 z "},"×":{"ha":836,"x_min":71,"x_max":765,"o":"m 71 -245 l 71 979 l 765 979 l 765 -245 l 71 -245 m 149 -168 l 688 -168 l 688 901 l 149 901 l 149 -168 z "},"Ù":{"ha":836,"x_min":71,"x_max":765,"o":"m 71 -245 l 71 979 l 765 979 l 765 -245 l 71 -245 m 149 -168 l 688 -168 l 688 901 l 149 901 l 149 -168 z "},"Ú":{"ha":836,"x_min":71,"x_max":765,"o":"m 71 -245 l 71 979 l 765 979 l 765 -245 l 71 -245 m 149 -168 l 688 -168 l 688 901 l 149 901 l 149 -168 z "},"Û":{"ha":836,"x_min":71,"x_max":765,"o":"m 71 -245 l 71 979 l 765 979 l 765 -245 l 71 -245 m 149 -168 l 688 -168 l 688 901 l 149 901 l 149 -168 z "},"Ý":{"ha":836,"x_min":71,"x_max":765,"o":"m 71 -245 l 71 979 l 765 979 l 765 -245 l 71 -245 m 149 -168 l 688 -168 l 688 901 l 149 901 l 149 -168 z "},"Þ":{"ha":836,"x_min":71,"x_max":765,"o":"m 71 -245 l 71 979 l 765 979 l 765 -245 l 71 -245 m 149 -168 l 688 -168 l 688 901 l 149 901 l 149 -168 z "},"‚":{"ha":836,"x_min":71,"x_max":765,"o":"m 71 -245 l 71 979 l 765 979 l 765 -245 l 71 -245 m 149 -168 l 688 -168 l 688 901 l 149 901 l 149 -168 z "},"‛":{"ha":836,"x_min":71,"x_max":765,"o":"m 71 -245 l 71 979 l 765 979 l 765 -245 l 71 -245 m 149 -168 l 688 -168 l 688 901 l 149 901 l 149 -168 z "},"„":{"ha":836,"x_min":71,"x_max":765,"o":"m 71 -245 l 71 979 l 765 979 l 765 -245 l 71 -245 m 149 -168 l 688 -168 l 688 901 l 149 901 l 149 -168 z "},"‟":{"ha":836,"x_min":71,"x_max":765,"o":"m 71 -245 l 71 979 l 765 979 l 765 -245 l 71 -245 m 149 -168 l 688 -168 l 688 901 l 149 901 l 149 -168 z "}," ":{"ha":836,"x_min":0,"x_max":0,"o":""},"!":{"ha":836,"x_min":334,"x_max":503,"o":"m 353 878 l 484 878 l 472 336 l 364 336 l 353 878 m 334 143 l 503 143 l 503 0 l 334 0 l 334 143 z "},"\"":{"ha":836,"x_min":205,"x_max":648,"o":"m 205 810 l 347 810 l 307 493 l 205 493 l 205 810 m 507 810 l 648 810 l 608 493 l 507 493 l 507 810 z "},"#":{"ha":836,"x_min":140,"x_max":699,"o":"m 484 339 l 530 550 l 389 550 l 408 637 l 551 637 l 604 878 l 697 878 l 643 637 l 699 637 l 681 550 l 624 550 l 576 339 l 676 339 l 657 252 l 555 252 l 498 0 l 407 0 l 464 252 l 325 252 l 344 339 l 484 339 m 143 0 l 200 252 l 140 252 l 161 339 l 220 339 l 267 550 l 165 550 l 184 637 l 286 637 l 340 878 l 430 878 l 223 0 l 143 0 z "},"$":{"ha":836,"x_min":126,"x_max":707,"o":"m 506 170 q 558 197 537 180 q 591 262 591 224 q 560 332 591 304 q 464 375 528 359 l 464 160 q 477 163 471 161 l 477 61 q 464 60 471 60 l 464 0 l 374 0 l 373 58 q 188 110 250 62 q 126 250 126 157 l 126 253 l 239 253 q 275 186 240 211 q 374 159 310 161 l 374 408 l 283 441 q 171 515 210 469 q 132 621 132 561 q 196 757 132 705 q 322 810 245 796 l 325 715 q 283 695 300 708 q 248 636 248 670 q 276 571 248 596 q 374 528 305 547 l 374 725 l 372 725 l 373 817 l 374 817 l 374 876 l 464 876 l 464 817 q 627 762 574 804 q 688 636 680 719 l 576 636 q 546 696 572 675 q 464 724 519 717 l 464 498 l 542 469 q 669 391 632 436 q 707 275 707 347 q 642 129 707 186 q 506 66 590 83 l 506 170 z "},"%":{"ha":836,"x_min":146,"x_max":690,"o":"m 558 78 q 597 97 583 78 q 611 150 611 116 q 597 204 611 185 q 558 222 584 222 q 518 204 532 222 q 504 150 504 185 q 518 96 504 115 q 558 78 532 78 m 690 150 q 654 44 690 83 q 558 4 618 4 q 461 43 497 4 q 425 150 425 83 q 461 256 425 216 q 558 296 498 296 q 654 256 618 296 q 690 150 690 216 m 279 653 q 318 671 304 653 q 332 725 332 690 q 318 779 332 760 q 279 798 304 798 q 239 779 253 798 q 225 725 225 760 q 239 672 225 691 q 279 653 254 653 m 411 725 q 375 618 411 658 q 279 579 340 579 q 182 618 218 579 q 146 725 146 658 q 182 831 146 791 q 279 871 218 871 q 375 831 339 871 q 411 725 411 792 m 149 4 l 149 69 l 629 871 l 686 871 l 686 807 l 210 4 l 149 4 z "},"&":{"ha":836,"x_min":125,"x_max":726,"o":"m 404 587 q 469 654 449 625 q 489 711 489 683 q 462 765 489 745 q 390 786 435 786 q 310 757 340 786 q 281 679 281 728 q 294 616 281 650 q 339 533 308 581 l 404 587 m 313 375 q 266 313 281 347 q 250 239 250 279 q 291 135 250 176 q 395 94 331 94 q 446 102 421 94 q 493 126 470 110 l 313 375 m 555 37 q 475 0 519 12 q 379 -12 431 -12 q 195 58 265 -12 q 125 241 125 128 q 154 363 125 309 q 248 471 182 417 q 182 588 203 535 q 161 686 161 641 q 222 831 161 778 q 390 884 283 884 q 546 842 490 884 q 603 726 603 800 q 574 623 603 673 q 486 525 545 573 l 397 453 l 570 215 q 590 288 583 250 q 596 380 596 325 q 595 385 596 381 q 595 404 595 394 l 703 404 q 688 233 703 301 q 640 118 673 165 l 726 0 l 582 0 l 555 37 z "},"'":{"ha":836,"x_min":335,"x_max":503,"o":"m 335 810 l 503 810 l 478 428 l 359 428 l 335 810 z "},"(":{"ha":836,"x_min":289,"x_max":621,"o":"m 621 -12 l 542 -12 q 349 190 408 84 q 289 435 289 295 q 348 682 289 576 q 542 885 408 788 l 621 885 l 621 794 q 465 634 514 720 q 415 435 415 547 q 465 236 415 322 q 621 78 515 150 l 621 -12 z "},")":{"ha":836,"x_min":215,"x_max":547,"o":"m 215 794 l 215 885 l 294 885 q 488 682 429 788 q 547 435 547 576 q 488 190 547 295 q 294 -12 428 84 l 215 -12 l 215 78 q 372 236 322 150 q 422 435 422 323 q 372 633 422 547 q 215 794 322 720 z "},"*":{"ha":836,"x_min":126,"x_max":711,"o":"m 357 701 l 357 736 l 481 736 l 481 701 q 477 622 481 690 q 471 510 473 554 q 577 550 522 530 q 635 571 632 570 l 672 586 l 711 468 l 669 456 l 666 455 q 501 411 580 429 q 611 276 549 357 l 614 273 l 644 233 l 547 163 l 518 203 q 466 279 490 241 q 418 354 441 317 q 356 259 379 293 q 318 203 334 224 l 289 163 l 193 233 l 222 273 q 275 341 248 307 q 335 411 303 376 q 262 429 299 419 q 168 456 225 438 l 126 468 l 164 586 l 203 571 q 261 550 205 570 q 367 510 317 530 q 360 629 364 563 q 357 701 357 694 z "},"+":{"ha":836,"x_min":150,"x_max":686,"o":"m 359 383 l 150 383 l 150 490 l 359 490 l 359 745 l 476 745 l 476 490 l 686 490 l 686 383 l 476 383 l 476 129 l 359 129 l 359 383 z "},",":{"ha":836,"x_min":191,"x_max":643,"o":"m 441 214 l 643 214 l 643 114 l 323 -208 l 191 -208 l 441 214 z "},"-":{"ha":836,"x_min":143,"x_max":693,"o":"m 143 509 l 693 509 l 693 371 l 143 371 l 143 509 z "},".":{"ha":836,"x_min":290,"x_max":546,"o":"m 290 204 l 546 204 l 546 0 l 290 0 l 290 204 z "},"/":{"ha":836,"x_min":174,"x_max":663,"o":"m 539 885 l 663 885 l 298 -9 l 174 -9 l 539 885 z "},":":{"ha":836,"x_min":302,"x_max":533,"o":"m 302 606 l 533 606 l 533 418 l 302 418 l 302 606 m 302 186 l 533 186 l 533 0 l 302 0 l 302 186 z "},";":{"ha":836,"x_min":197,"x_max":635,"o":"m 368 606 l 583 606 l 583 419 l 368 419 l 368 606 m 386 189 l 635 189 l 347 -195 l 197 -195 l 386 189 z "},"<":{"ha":836,"x_min":114,"x_max":692,"o":"m 692 33 l 114 421 l 114 461 l 692 848 l 692 704 l 283 441 l 692 179 l 692 33 z "},"=":{"ha":836,"x_min":151,"x_max":686,"o":"m 151 623 l 686 623 l 686 515 l 151 515 l 151 623 m 686 359 l 686 253 l 151 253 l 151 359 l 686 359 z "},">":{"ha":836,"x_min":144,"x_max":722,"o":"m 554 441 l 144 704 l 144 848 l 722 461 l 722 421 l 144 33 l 144 179 l 554 441 z "},"?":{"ha":836,"x_min":174,"x_max":661,"o":"m 372 353 q 381 394 372 376 q 414 436 391 413 l 471 492 q 520 554 505 525 q 534 616 534 583 q 504 691 534 663 q 419 718 473 718 q 325 686 358 718 q 292 595 292 654 l 292 559 l 174 559 l 174 589 q 235 764 174 706 q 418 822 296 822 q 595 767 529 822 q 661 623 661 713 q 641 528 661 570 q 574 439 621 485 l 507 371 q 494 354 497 361 q 490 332 490 347 l 490 292 l 372 292 l 372 353 m 347 147 l 515 147 l 515 0 l 347 0 l 347 147 z "},"@":{"ha":836,"x_min":138,"x_max":700,"o":"m 307 387 q 254 352 272 387 q 236 245 236 316 q 256 121 236 159 q 307 83 272 87 l 307 -7 q 180 54 222 -7 q 138 236 138 115 q 178 414 138 355 q 300 472 218 472 l 307 472 l 307 387 m 342 85 q 378 115 366 92 q 397 218 397 146 q 376 346 397 304 q 342 380 362 370 l 342 467 q 356 463 349 465 q 399 433 380 453 l 399 468 l 496 468 l 496 155 q 507 99 496 117 q 542 82 517 82 q 591 122 577 82 q 604 301 604 162 l 604 437 q 557 663 604 596 q 401 729 511 729 q 280 695 319 729 q 240 590 240 661 l 240 586 l 138 586 l 138 589 q 209 754 138 694 q 408 814 281 814 q 625 722 551 814 q 700 454 700 630 l 700 290 q 663 57 700 121 q 539 -7 627 -7 q 477 9 503 -7 q 433 58 450 26 q 382 9 413 26 q 342 -4 363 0 l 342 85 z "},"A":{"ha":836,"x_min":126,"x_max":715,"o":"m 507 342 l 427 663 l 463 815 l 501 815 l 715 0 l 590 0 l 533 235 l 325 235 l 351 342 l 507 342 m 126 0 l 339 815 l 427 815 l 222 0 l 126 0 z "},"B":{"ha":836,"x_min":142,"x_max":721,"o":"m 292 473 l 397 473 q 539 499 497 473 q 582 582 582 524 q 539 670 582 642 q 401 697 496 697 l 292 697 l 292 803 l 428 803 q 630 746 559 803 q 701 586 701 690 q 676 484 701 524 q 600 422 652 444 q 690 355 659 401 q 721 240 721 309 q 687 117 721 171 q 591 35 652 62 q 521 13 559 20 q 407 7 482 7 l 292 7 l 292 113 l 397 113 q 549 143 502 113 q 596 241 596 174 q 550 338 596 307 q 408 370 503 370 l 292 370 l 292 473 m 254 7 l 142 7 l 142 803 l 254 803 l 254 7 z "},"C":{"ha":836,"x_min":182,"x_max":668,"o":"m 665 623 l 545 623 q 517 689 541 666 q 449 711 492 711 q 343 633 380 711 q 307 408 307 555 q 343 173 307 254 q 449 92 379 92 q 519 116 493 92 q 547 182 546 140 l 668 182 q 600 39 656 91 q 457 -14 544 -14 q 253 97 325 -14 q 182 414 182 208 q 255 708 182 600 q 454 815 329 815 q 600 764 543 815 q 665 623 656 712 z "},"D":{"ha":836,"x_min":189,"x_max":681,"o":"m 347 118 q 486 192 430 132 q 554 385 554 267 q 486 595 554 509 q 347 689 432 663 l 347 798 q 565 684 473 778 q 681 395 681 565 q 574 112 681 216 q 347 10 486 26 l 347 118 m 292 7 l 189 7 l 189 803 l 292 803 l 292 7 z "},"E":{"ha":836,"x_min":186,"x_max":679,"o":"m 186 803 l 667 803 l 667 703 l 301 703 l 301 478 l 623 478 l 623 372 l 301 372 l 301 114 l 679 114 l 679 7 l 186 7 l 186 803 z "},"F":{"ha":836,"x_min":243,"x_max":661,"o":"m 243 803 l 661 803 l 661 701 l 358 701 l 358 476 l 607 476 l 607 371 l 358 371 l 358 0 l 243 0 l 243 803 z "},"G":{"ha":836,"x_min":139,"x_max":689,"o":"m 399 432 l 689 432 l 689 35 q 559 -2 613 9 q 460 -14 506 -14 q 224 97 309 -14 q 139 408 139 208 q 226 710 139 602 q 464 819 313 819 q 614 775 555 819 q 689 654 674 732 l 568 654 q 525 702 551 685 q 467 718 498 718 q 315 641 366 718 q 264 410 264 563 q 314 173 264 253 q 461 93 363 93 q 513 99 485 93 q 574 119 541 106 l 574 326 l 399 326 l 399 432 z "},"H":{"ha":836,"x_min":164,"x_max":673,"o":"m 164 810 l 279 810 l 279 471 l 558 471 l 558 810 l 673 810 l 673 0 l 558 0 l 558 366 l 279 366 l 279 0 l 164 0 l 164 810 z "},"I":{"ha":836,"x_min":214,"x_max":623,"o":"m 214 114 l 359 114 l 359 700 l 239 700 l 239 803 l 597 803 l 597 700 l 476 700 l 476 114 l 623 114 l 623 7 l 214 7 l 214 114 z "},"J":{"ha":836,"x_min":180,"x_max":591,"o":"m 296 261 l 296 218 q 316 120 296 147 q 385 93 336 93 q 454 121 431 93 q 476 207 476 149 l 476 810 l 591 810 l 591 244 q 542 50 591 113 q 386 -12 492 -12 q 232 44 283 -12 q 180 215 180 101 l 180 261 l 296 261 z "},"K":{"ha":836,"x_min":138,"x_max":764,"o":"m 138 810 l 253 810 l 253 473 l 581 810 l 736 810 l 349 427 l 764 0 l 602 0 l 253 372 l 253 0 l 138 0 l 138 810 z "},"L":{"ha":836,"x_min":199,"x_max":722,"o":"m 199 810 l 314 810 l 314 114 l 722 114 l 722 7 l 199 7 l 199 810 z "},"M":{"ha":836,"x_min":134,"x_max":705,"o":"m 134 810 l 321 810 l 419 453 l 518 810 l 705 810 l 705 0 l 590 0 l 590 694 l 464 264 l 370 264 l 243 697 l 243 0 l 134 0 l 134 810 z "},"N":{"ha":836,"x_min":150,"x_max":686,"o":"m 150 810 l 289 810 l 576 205 l 576 810 l 686 810 l 686 0 l 553 0 l 260 610 l 260 0 l 150 0 l 150 810 z "},"O":{"ha":836,"x_min":129,"x_max":707,"o":"m 389 716 q 299 637 334 703 q 254 408 254 553 q 299 180 254 264 q 389 99 335 113 l 389 -11 q 211 104 283 1 q 129 406 129 221 q 211 707 129 591 q 389 822 283 810 l 389 716 m 427 96 q 537 180 494 101 q 582 408 582 264 q 538 636 582 553 q 427 720 496 715 l 427 823 q 625 707 546 819 q 707 406 707 591 q 625 104 707 220 q 427 -12 546 -8 l 427 96 z "},"P":{"ha":836,"x_min":167,"x_max":713,"o":"m 310 441 l 412 441 q 547 471 507 441 q 587 570 587 501 q 546 667 587 635 q 424 700 505 700 l 310 700 l 310 803 l 444 803 q 642 741 570 803 q 713 571 713 680 q 644 400 713 463 q 458 338 576 338 l 310 338 l 310 441 m 265 0 l 167 0 l 167 803 l 265 803 l 265 0 z "},"Q":{"ha":836,"x_min":121,"x_max":744,"o":"m 450 392 l 744 0 l 616 0 l 311 392 l 450 392 m 469 56 q 400 45 435 45 q 197 152 273 45 q 121 440 121 259 q 196 720 121 616 q 371 822 263 812 l 371 716 q 284 645 315 705 q 245 429 245 571 q 288 227 245 300 q 401 153 330 153 q 437 159 422 153 q 444 161 441 160 l 509 73 q 469 56 489 62 m 542 341 q 543 350 543 345 q 547 415 547 380 q 506 637 547 555 q 421 715 473 703 l 421 822 q 597 715 528 812 q 675 428 675 606 q 660 294 675 355 q 633 215 650 253 l 542 341 z "},"R":{"ha":836,"x_min":176,"x_max":717,"o":"m 310 443 l 380 443 q 508 474 465 443 q 550 567 550 505 q 509 668 550 637 q 378 700 469 700 l 310 700 l 310 803 l 393 803 q 605 746 535 803 q 675 572 675 688 q 632 430 675 484 q 509 357 590 375 l 717 0 l 578 0 l 390 338 l 310 338 l 310 443 m 278 0 l 176 0 l 176 803 l 278 803 l 278 0 z "},"S":{"ha":836,"x_min":164,"x_max":672,"o":"m 541 612 q 506 689 538 661 q 419 717 473 717 q 331 687 366 717 q 296 612 296 657 q 326 544 296 574 q 436 475 355 514 l 482 453 q 629 346 587 401 q 672 212 672 291 q 600 51 672 111 q 404 -9 527 -9 q 230 50 291 -9 q 164 224 168 110 l 289 224 l 289 220 q 320 127 289 160 q 406 94 351 94 q 508 128 468 94 q 547 214 547 162 q 520 288 547 258 q 386 370 493 318 l 329 397 q 211 488 250 435 q 172 610 172 541 q 243 762 172 704 q 428 821 313 821 q 594 765 531 821 q 664 612 656 710 l 541 612 z "},"T":{"ha":836,"x_min":147,"x_max":690,"o":"m 361 697 l 147 697 l 147 803 l 690 803 l 690 697 l 476 697 l 476 0 l 361 0 l 361 697 z "},"U":{"ha":836,"x_min":149,"x_max":689,"o":"m 149 810 l 264 810 l 264 292 q 300 137 264 179 q 421 96 336 96 q 542 140 505 96 q 578 290 578 184 l 578 810 l 689 810 l 689 272 q 621 57 689 126 q 411 -12 553 -12 q 282 13 339 -12 q 193 86 226 39 q 159 166 169 121 q 149 325 149 212 l 149 810 z "},"V":{"ha":836,"x_min":114,"x_max":720,"o":"m 114 810 l 237 810 l 421 111 l 603 810 l 720 810 l 501 0 l 336 0 l 114 810 z "},"W":{"ha":836,"x_min":127,"x_max":703,"o":"m 127 810 l 247 810 q 259 475 248 629 q 290 186 270 321 l 368 494 l 472 494 l 554 186 q 577 426 568 288 q 593 810 586 564 l 703 810 q 678 345 698 537 q 621 0 659 152 l 500 0 l 418 294 l 339 0 l 215 0 q 156 333 177 140 q 127 810 135 526 z "},"X":{"ha":836,"x_min":118,"x_max":715,"o":"m 345 412 l 119 810 l 258 810 l 415 522 l 575 810 l 703 810 l 486 419 l 715 0 l 578 0 l 414 310 l 250 0 l 118 0 l 345 412 z "},"Y":{"ha":836,"x_min":119,"x_max":705,"o":"m 361 366 l 119 810 l 257 810 l 419 498 l 579 810 l 705 810 l 476 378 l 476 0 l 361 0 l 361 366 z "},"Z":{"ha":836,"x_min":178,"x_max":659,"o":"m 178 98 l 486 699 l 182 699 l 182 803 l 619 803 l 619 707 l 315 113 l 659 113 l 659 7 l 178 7 l 178 98 z "},"[":{"ha":836,"x_min":236,"x_max":659,"o":"m 236 -12 l 236 885 l 659 885 l 659 781 l 351 781 l 351 97 l 659 97 l 659 -12 l 236 -12 z "},"\\":{"ha":836,"x_min":172,"x_max":665,"o":"m 172 885 l 300 885 l 665 -12 l 539 -12 l 172 885 z "},"]":{"ha":836,"x_min":178,"x_max":600,"o":"m 178 97 l 485 97 l 485 781 l 178 781 l 178 885 l 600 885 l 600 -12 l 178 -12 l 178 97 z "},"^":{"ha":836,"x_min":127,"x_max":707,"o":"m 390 875 l 446 875 l 707 479 l 636 421 l 418 652 l 200 421 l 127 479 l 390 875 z "},"_":{"ha":836,"x_min":-5,"x_max":895,"o":"m -5 -401 l -5 -296 l 895 -296 l 895 -401 l -5 -401 z "},"`":{"ha":836,"x_min":248,"x_max":503,"o":"m 389 688 l 248 878 l 397 878 l 503 688 l 389 688 z "},"a":{"ha":836,"x_min":150,"x_max":656,"o":"m 400 281 q 316 260 349 275 q 260 178 260 233 q 290 114 260 139 q 367 89 319 89 q 400 92 384 89 l 400 -6 q 364 -8 382 -8 q 209 44 267 -8 q 150 182 150 96 q 236 334 150 286 q 400 377 295 367 l 400 281 m 437 102 q 499 143 472 115 q 555 283 552 197 q 524 285 543 284 q 488 286 496 286 q 437 285 461 286 l 437 380 q 505 382 469 382 q 531 381 514 382 q 555 380 547 380 l 555 385 q 519 489 555 456 q 437 519 492 513 l 437 616 q 596 560 544 609 q 656 379 656 503 l 656 0 l 555 0 l 555 78 q 470 14 518 35 q 437 1 454 6 l 437 102 m 400 521 q 335 509 358 520 q 302 473 311 498 l 189 473 q 253 581 197 544 q 400 616 307 616 l 400 521 z "},"b":{"ha":836,"x_min":157,"x_max":714,"o":"m 313 140 q 436 89 359 89 q 560 146 516 89 q 604 306 604 203 q 559 459 604 402 q 436 515 513 515 q 313 465 359 515 l 313 575 q 347 593 329 585 q 453 614 395 614 q 644 531 573 614 q 714 304 714 448 q 645 73 714 157 q 456 -11 575 -11 q 341 11 388 -11 q 313 26 326 18 l 313 140 m 260 876 l 260 74 q 254 81 257 77 l 254 0 l 157 0 l 157 876 l 260 876 z "},"c":{"ha":836,"x_min":196,"x_max":660,"o":"m 654 439 l 542 439 q 514 499 538 478 q 446 519 490 519 q 339 469 374 519 q 304 315 304 419 q 338 144 304 201 q 437 86 371 86 q 512 112 486 86 q 543 191 539 138 l 660 191 q 597 43 656 94 q 435 -8 539 -8 q 259 74 323 -8 q 196 302 196 157 q 262 533 196 454 q 456 611 328 611 q 598 566 546 611 q 654 439 650 521 z "},"d":{"ha":836,"x_min":122,"x_max":681,"o":"m 575 258 q 578 302 578 279 q 575 347 578 326 l 575 533 q 576 532 576 532 l 576 876 l 681 876 l 681 0 l 582 0 l 582 81 q 575 73 578 77 l 575 258 m 528 460 q 400 515 479 515 q 278 458 323 515 q 232 306 232 401 q 276 146 232 203 q 400 89 320 89 q 528 143 480 89 l 528 30 q 494 11 511 18 q 380 -11 448 -11 q 192 73 261 -11 q 122 304 122 157 q 193 531 122 448 q 383 614 263 614 q 490 593 441 614 q 528 573 509 585 l 528 460 z "},"e":{"ha":836,"x_min":151,"x_max":686,"o":"m 403 521 q 322 484 356 515 q 267 378 280 446 l 403 378 l 403 283 l 267 283 l 267 277 q 313 138 267 188 q 439 87 359 87 q 501 99 477 87 q 533 132 525 110 l 657 132 q 589 28 646 66 q 440 -9 531 -9 q 228 73 304 -9 q 151 304 151 156 q 227 532 151 449 q 403 614 294 605 l 403 521 m 445 378 l 574 378 q 528 485 566 447 q 445 522 495 516 l 445 615 q 621 530 558 611 q 686 288 686 446 l 686 283 l 445 283 l 445 378 z "},"f":{"ha":836,"x_min":191,"x_max":642,"o":"m 361 509 l 191 509 l 191 606 l 359 606 q 358 624 359 614 q 358 652 358 633 q 418 824 358 772 q 619 876 479 876 l 642 876 l 642 781 q 500 750 537 779 q 463 640 463 720 q 463 629 463 640 q 464 606 464 617 l 642 606 l 642 509 l 464 509 l 464 0 l 361 0 l 361 509 z "},"g":{"ha":836,"x_min":135,"x_max":673,"o":"m 392 515 q 287 465 326 513 q 244 326 244 413 q 286 181 244 233 q 392 129 324 132 l 392 31 l 386 31 q 204 111 273 31 q 135 323 135 191 q 204 534 135 455 q 387 612 273 612 l 392 612 l 392 515 m 421 130 q 521 181 482 136 q 566 322 566 233 q 521 464 566 412 q 421 514 482 508 l 421 610 q 492 592 460 606 q 570 530 538 571 l 570 606 l 673 606 l 673 61 q 610 -149 673 -87 q 397 -210 547 -210 q 230 -170 290 -210 q 165 -56 170 -130 l 280 -56 q 311 -101 284 -87 q 406 -114 338 -114 q 534 -79 498 -114 q 570 58 570 -45 l 570 114 q 490 52 536 72 q 421 33 458 37 l 421 130 z "},"h":{"ha":836,"x_min":184,"x_max":652,"o":"m 547 375 q 522 481 547 446 q 446 517 496 517 q 325 449 362 517 q 288 222 288 381 l 288 0 l 184 0 l 184 876 l 288 876 l 288 541 q 366 594 323 575 q 453 612 410 612 q 601 555 550 612 q 652 386 652 497 l 652 0 l 547 0 l 547 375 z "},"i":{"ha":836,"x_min":243,"x_max":542,"o":"m 429 498 l 243 498 l 243 597 l 539 597 l 539 0 l 429 0 l 429 498 m 389 876 l 542 876 l 542 739 l 389 739 l 389 876 z "},"j":{"ha":836,"x_min":239,"x_max":568,"o":"m 419 876 l 568 876 l 568 739 l 419 739 l 419 876 m 307 501 l 307 599 l 561 599 l 561 40 q 514 -140 561 -82 q 367 -197 467 -197 l 239 -197 l 239 -98 l 326 -98 q 431 -63 403 -98 q 460 71 460 -28 l 460 501 l 307 501 z "},"k":{"ha":836,"x_min":179,"x_max":708,"o":"m 179 876 l 283 876 l 283 376 l 292 376 l 530 606 l 682 606 l 385 340 l 708 0 l 559 0 l 292 294 l 283 294 l 283 0 l 179 0 l 179 876 z "},"l":{"ha":836,"x_min":288,"x_max":610,"o":"m 521 0 q 338 55 389 0 q 288 279 288 111 l 288 876 l 392 876 l 392 298 q 427 132 392 166 q 567 98 461 98 l 610 98 l 610 0 l 521 0 z "},"m":{"ha":836,"x_min":136,"x_max":703,"o":"m 136 606 l 233 606 l 233 564 q 284 600 256 588 q 343 612 311 612 q 401 595 375 612 q 447 543 427 578 q 506 595 474 578 q 575 612 537 612 q 671 561 640 612 q 703 403 703 509 l 703 0 l 600 0 l 600 429 q 588 495 600 473 q 549 517 575 517 q 491 474 509 517 q 472 340 472 431 l 472 0 l 370 0 l 370 433 q 358 498 370 479 q 318 517 346 517 q 258 475 277 517 q 239 340 239 434 l 239 0 l 136 0 l 136 606 z "},"n":{"ha":836,"x_min":151,"x_max":684,"o":"m 151 606 l 254 606 l 254 521 q 347 590 298 567 q 450 612 396 612 q 630 542 576 612 q 684 292 684 471 l 684 0 l 581 0 l 581 298 q 552 473 581 426 q 454 519 524 519 q 357 496 400 519 q 288 429 315 473 q 262 362 269 400 q 254 240 254 323 l 254 222 l 254 0 l 151 0 l 151 606 z "},"o":{"ha":836,"x_min":132,"x_max":704,"o":"m 392 518 q 289 461 329 510 q 240 302 240 402 q 289 145 240 203 q 392 87 329 96 l 392 -9 q 211 76 281 -1 q 132 302 132 161 q 212 530 132 444 q 392 616 282 608 l 392 518 m 421 86 q 548 145 500 87 q 596 302 596 203 q 547 461 596 402 q 421 519 500 518 l 421 616 q 625 530 548 615 q 704 302 704 444 q 625 76 704 161 q 421 -9 548 -8 l 421 86 z "},"p":{"ha":836,"x_min":157,"x_max":714,"o":"m 406 516 q 307 461 345 507 q 258 306 258 404 q 307 149 258 207 q 406 94 345 102 l 406 -2 q 342 14 371 3 q 258 77 294 34 l 258 -197 l 157 -197 l 157 606 l 258 606 l 258 532 q 348 593 299 573 q 406 610 376 605 l 406 516 m 440 92 q 560 149 517 93 q 604 309 604 205 q 559 461 604 404 q 440 518 514 517 l 440 614 l 453 614 q 644 531 573 614 q 714 304 714 448 q 645 77 714 160 q 456 -5 575 -5 l 440 -5 l 440 92 z "},"q":{"ha":836,"x_min":121,"x_max":679,"o":"m 366 515 q 278 461 313 505 q 232 309 232 404 q 276 149 232 205 q 366 94 310 104 l 366 -5 q 191 77 256 0 q 121 304 121 160 q 192 531 121 448 q 366 613 257 608 l 366 515 m 397 92 l 400 92 q 530 149 482 92 q 578 306 578 207 q 529 461 578 404 q 400 518 481 518 l 397 518 l 397 614 q 488 593 445 611 q 578 532 536 573 l 578 606 l 679 606 l 679 -197 l 578 -197 l 578 77 q 493 14 541 34 q 397 -5 452 -3 l 397 92 z "},"r":{"ha":836,"x_min":215,"x_max":660,"o":"m 215 606 l 318 606 l 318 534 q 393 594 351 574 q 485 614 435 614 q 614 565 568 614 q 660 428 660 516 l 660 424 l 555 424 l 555 432 q 536 496 555 473 q 481 519 516 519 q 362 453 407 519 q 318 271 318 386 l 318 0 l 215 0 l 215 606 z "},"s":{"ha":836,"x_min":170,"x_max":663,"o":"m 273 154 q 313 103 281 120 q 406 86 346 86 q 517 107 480 86 q 554 170 554 127 q 536 212 554 197 q 461 243 518 227 l 367 269 q 232 336 275 295 q 189 441 189 378 q 251 572 189 530 q 440 615 313 615 q 589 572 538 615 q 642 444 640 528 l 538 443 q 509 504 534 486 q 418 521 483 521 q 324 502 355 521 q 293 446 293 484 q 315 398 293 416 q 408 363 338 380 l 498 339 q 621 277 578 319 q 663 176 663 235 q 597 40 663 90 q 415 -9 531 -9 q 239 30 298 -9 q 170 154 180 68 l 273 154 z "},"t":{"ha":836,"x_min":193,"x_max":642,"o":"m 318 233 l 318 504 l 193 504 l 193 602 l 326 602 l 326 754 l 431 783 l 431 602 l 642 602 l 642 504 l 422 504 l 422 232 q 444 124 422 156 q 517 93 466 93 q 572 103 542 93 q 642 134 602 113 l 642 31 q 566 4 604 13 q 488 -4 528 -4 q 402 15 439 -4 q 343 69 365 34 q 324 119 330 92 q 318 203 318 147 l 318 233 z "},"u":{"ha":836,"x_min":153,"x_max":685,"o":"m 685 0 l 582 0 l 582 85 q 488 15 537 37 q 378 -7 438 -7 q 269 17 317 -7 q 193 85 222 41 q 162 163 172 119 q 153 314 153 207 l 153 606 l 256 606 l 256 309 q 286 133 256 179 q 387 86 315 86 q 480 110 437 86 q 549 176 523 134 q 574 244 566 205 q 582 366 582 282 l 582 383 l 582 606 l 685 606 l 685 0 z "},"v":{"ha":836,"x_min":118,"x_max":717,"o":"m 118 606 l 231 606 l 415 86 l 425 86 l 610 606 l 717 606 l 496 0 l 339 0 l 118 606 z "},"w":{"ha":836,"x_min":131,"x_max":708,"o":"m 131 606 l 239 606 l 282 239 q 283 230 282 237 q 292 117 292 170 l 359 368 l 481 368 l 550 117 q 556 186 553 150 q 559 225 559 222 l 600 606 l 708 606 l 631 0 l 493 0 l 418 268 l 346 0 l 208 0 l 131 606 z "},"x":{"ha":836,"x_min":132,"x_max":704,"o":"m 351 304 l 143 608 l 272 608 l 418 387 l 562 608 l 684 608 l 484 313 l 704 0 l 572 0 l 414 229 l 256 0 l 132 0 l 351 304 z "},"y":{"ha":836,"x_min":109,"x_max":737,"o":"m 109 606 l 231 606 l 433 250 l 624 606 l 737 606 l 359 -90 q 293 -179 322 -159 q 211 -200 264 -200 l 155 -200 l 155 -100 l 207 -100 q 233 -94 222 -100 q 252 -75 244 -87 l 376 151 l 109 606 z "},"z":{"ha":836,"x_min":179,"x_max":659,"o":"m 179 118 l 524 500 l 203 500 l 203 599 l 644 599 l 644 482 l 306 106 l 659 106 l 659 7 l 179 7 l 179 118 z "},"{":{"ha":836,"x_min":147,"x_max":688,"o":"m 147 489 l 199 489 q 296 510 269 489 q 323 583 323 532 q 325 600 323 585 q 326 629 326 615 l 329 669 q 397 835 337 786 q 599 884 457 884 q 615 884 600 884 q 644 885 631 885 l 688 885 l 688 778 l 644 778 q 481 752 512 778 q 444 647 450 726 l 439 579 q 415 483 435 517 q 357 436 395 449 q 415 389 395 423 q 439 293 435 355 l 444 225 q 481 120 450 146 q 644 94 512 94 l 688 94 l 688 -12 l 644 -12 q 623 -12 641 -12 q 590 -11 606 -11 q 396 38 456 -11 q 329 203 336 87 l 326 243 q 326 251 326 246 q 199 383 319 383 l 147 383 l 147 489 z "},"|":{"ha":836,"x_min":361,"x_max":476,"o":"m 361 1029 l 476 1029 l 476 -370 l 361 -370 l 361 1029 z "},"}":{"ha":836,"x_min":150,"x_max":690,"o":"m 637 383 q 511 254 517 383 q 510 243 510 247 l 509 203 q 440 37 500 85 q 229 -11 380 -11 q 213 -12 225 -11 q 192 -12 200 -12 l 150 -12 l 150 94 l 232 94 q 356 121 325 94 q 393 225 388 147 l 397 293 q 421 389 401 355 q 481 436 441 423 q 421 483 441 449 q 397 579 401 517 l 393 647 q 357 752 388 726 q 193 778 326 778 l 150 778 l 150 885 l 192 885 q 218 884 201 885 q 245 884 236 884 q 441 834 381 884 q 509 669 501 784 l 510 629 q 511 616 510 625 q 637 489 519 489 l 690 489 l 690 383 l 637 383 z "},"Ä":{"ha":836,"x_min":118,"x_max":724,"o":"m 416 640 l 314 277 l 522 277 l 416 640 m 367 815 l 476 815 l 724 0 l 602 0 l 551 171 l 285 171 l 235 0 l 118 0 l 367 815 m 593 882 l 708 882 l 708 725 l 593 725 l 593 882 m 132 882 l 248 882 l 248 725 l 132 725 l 132 882 z "},"Å":{"ha":836,"x_min":129,"x_max":711,"o":"m 419 607 q 514 631 481 607 q 547 700 547 656 q 514 768 547 744 q 419 791 481 791 q 325 768 357 791 q 292 700 292 744 q 325 631 292 655 q 419 607 357 607 m 525 265 l 463 519 l 372 519 l 310 265 l 525 265 m 566 553 l 711 0 l 590 0 l 551 157 l 283 157 l 245 0 l 129 0 l 273 551 q 209 612 233 573 q 186 700 186 652 q 249 833 186 783 q 419 884 313 884 q 589 833 526 884 q 653 700 653 783 q 631 615 653 652 q 566 553 608 578 z "},"Ñ":{"ha":836,"x_min":165,"x_max":669,"o":"m 408 741 l 378 762 q 355 774 368 770 q 330 778 342 778 q 300 762 311 778 q 289 717 289 746 l 179 717 l 179 720 q 218 838 179 793 q 319 884 258 884 q 373 875 349 884 q 425 847 398 867 l 456 825 q 478 813 466 817 q 503 810 490 810 q 534 825 523 810 q 546 872 545 841 l 656 872 q 616 751 656 798 q 514 704 576 704 q 461 712 486 704 q 408 741 437 720 m 165 602 l 311 602 l 562 160 l 562 602 l 669 602 l 669 0 l 522 0 l 272 441 l 272 0 l 165 0 l 165 602 z "},"Ö":{"ha":836,"x_min":129,"x_max":707,"o":"m 419 96 q 534 165 491 96 q 578 351 578 234 q 535 537 578 469 q 419 606 492 606 q 303 537 346 606 q 260 351 260 469 q 303 164 260 233 q 419 96 346 96 m 134 351 q 216 609 134 506 q 418 711 298 711 q 620 609 538 711 q 703 351 703 506 q 621 93 703 195 q 418 -9 538 -9 q 216 93 298 -9 q 134 351 134 196 m 591 880 l 707 880 l 707 722 l 591 722 l 591 880 m 129 880 l 244 880 l 244 722 l 129 722 l 129 880 z "},"Ü":{"ha":836,"x_min":131,"x_max":707,"o":"m 532 879 l 707 879 l 707 790 l 532 790 l 532 879 m 131 879 l 306 879 l 306 790 l 131 790 l 131 879 m 707 325 l 707 297 q 698 186 707 227 q 669 113 689 146 q 569 19 633 51 q 421 -12 506 -12 q 201 69 271 -12 q 131 325 131 150 l 131 668 l 245 668 l 245 363 q 286 154 245 212 q 424 96 327 96 q 556 155 517 96 q 596 363 596 214 l 596 668 l 707 668 l 707 325 z "},"å":{"ha":836,"x_min":150,"x_max":656,"o":"m 415 597 q 513 623 479 597 q 547 694 547 648 q 513 767 547 742 q 415 791 479 791 q 317 767 351 791 q 283 694 283 742 q 317 622 283 647 q 415 597 351 597 m 555 283 q 524 285 543 284 q 488 286 496 286 q 316 259 372 286 q 260 178 260 233 q 290 114 260 138 q 370 89 320 89 q 501 143 448 89 q 555 283 553 197 m 555 78 q 471 14 519 35 q 364 -8 422 -8 q 209 44 267 -8 q 150 182 150 96 q 236 334 150 286 q 505 382 322 382 q 531 381 514 382 q 555 380 547 380 l 555 393 q 519 483 555 450 q 418 515 483 515 q 335 496 370 515 q 286 443 301 477 l 182 443 q 206 515 185 486 q 267 558 227 544 q 210 615 229 581 q 191 696 191 650 q 251 828 191 779 q 415 876 311 876 q 579 828 518 876 q 640 699 640 779 q 624 620 640 652 q 568 558 607 588 q 635 498 615 542 q 656 364 656 454 l 656 0 l 555 0 l 555 78 z "},"†":{"ha":836,"x_min":154,"x_max":681,"o":"m 359 810 l 475 810 l 475 579 l 681 579 l 681 488 l 475 488 l 475 0 l 359 0 l 359 488 l 154 488 l 154 579 l 359 579 l 359 810 z "},"£":{"ha":836,"x_min":149,"x_max":688,"o":"m 149 113 l 236 113 l 304 401 l 180 401 l 180 505 l 328 505 l 363 648 q 442 826 391 768 q 567 884 492 884 q 629 871 600 884 q 688 833 659 859 l 688 724 l 656 724 q 613 766 631 754 q 574 778 594 778 q 519 752 539 778 q 482 653 500 727 l 447 505 l 570 505 l 570 401 l 422 401 l 354 113 l 688 113 l 688 7 l 149 7 l 149 113 z "},"§":{"ha":836,"x_min":139,"x_max":699,"o":"m 371 504 q 323 511 339 507 q 294 521 308 515 q 267 487 275 503 q 258 454 258 471 q 286 405 258 421 q 383 383 314 389 l 473 376 q 512 371 493 374 q 549 364 530 368 q 575 395 567 380 q 583 425 583 409 q 554 472 583 455 q 463 496 525 490 l 371 504 m 408 278 l 313 285 q 189 335 237 291 q 142 446 142 380 q 159 518 142 488 q 212 571 176 549 q 180 618 191 591 q 170 681 170 646 q 241 829 170 774 q 435 885 313 885 q 610 834 547 885 q 673 693 673 783 l 553 693 q 521 759 551 736 q 435 781 492 781 q 328 757 366 781 q 290 692 290 734 q 319 634 290 653 q 452 602 347 614 l 534 590 q 653 539 611 581 q 696 432 696 497 q 683 366 696 394 q 642 319 669 338 q 684 258 669 292 q 699 184 699 224 q 624 41 699 95 q 424 -12 550 -12 q 217 45 296 -12 q 139 189 139 102 l 139 197 l 260 197 q 309 117 270 143 q 419 92 348 92 q 535 118 492 92 q 578 187 578 144 q 547 250 578 230 q 408 278 516 269 z "},"ß":{"ha":836,"x_min":174,"x_max":717,"o":"m 174 547 q 235 799 174 718 q 425 880 296 880 q 618 818 547 880 q 689 648 689 755 q 663 543 689 589 q 583 464 637 498 q 685 386 654 438 q 717 239 717 333 q 661 63 717 127 q 507 0 605 0 l 478 0 l 478 100 l 492 100 q 579 137 551 100 q 608 250 608 174 q 567 369 608 328 q 447 410 526 410 l 439 410 l 439 515 q 545 550 508 515 q 582 650 582 585 q 544 747 582 711 q 440 783 506 783 q 316 733 353 783 q 279 554 279 683 l 279 0 l 174 0 l 174 547 z "},"´":{"ha":836,"x_min":335,"x_max":591,"o":"m 441 878 l 591 878 l 450 688 l 335 688 l 441 878 z "},"¨":{"ha":836,"x_min":250,"x_max":586,"o":"m 469 873 l 586 873 l 586 696 l 469 696 l 469 873 m 250 873 l 367 873 l 367 696 l 250 696 l 250 873 z "},"Æ":{"ha":836,"x_min":122,"x_max":689,"o":"m 368 701 l 290 311 l 424 311 l 400 701 l 368 701 m 286 803 l 684 803 l 684 701 l 501 701 l 518 473 l 677 473 l 677 370 l 526 370 l 545 113 l 689 113 l 689 7 l 441 7 l 431 205 l 269 205 l 229 0 l 122 0 l 286 803 z "},"Ø":{"ha":836,"x_min":135,"x_max":700,"o":"m 452 672 q 436 673 445 673 q 415 673 427 673 q 292 612 332 673 q 253 418 253 550 q 266 274 253 332 q 304 180 278 216 l 452 672 m 383 139 q 408 136 397 137 q 425 135 418 135 q 543 201 505 135 q 582 404 582 267 q 568 536 582 480 q 528 629 555 593 l 383 139 m 357 44 l 336 -26 l 243 -26 l 272 71 q 169 202 203 119 q 135 406 135 286 q 204 677 135 583 q 406 771 274 771 q 438 769 421 771 q 478 764 455 768 l 498 832 l 589 832 l 559 737 q 665 604 629 688 q 700 406 700 520 q 632 132 700 227 q 435 37 564 37 q 404 39 422 37 q 357 44 385 41 z "},"¥":{"ha":836,"x_min":121,"x_max":715,"o":"m 359 245 l 151 245 l 151 347 l 359 347 l 359 478 l 121 810 l 249 810 l 412 583 l 578 810 l 715 810 l 464 478 l 464 347 l 672 347 l 672 245 l 464 245 l 464 0 l 359 0 l 359 245 z "},"µ":{"ha":1063,"x_min":117,"x_max":946,"o":"m 844 297 q 821 473 844 427 q 742 519 798 519 q 664 497 699 519 q 608 432 629 474 q 589 370 595 405 q 583 275 583 335 l 583 222 l 583 0 l 482 0 l 482 297 q 458 474 482 429 q 375 519 434 519 q 301 496 336 519 q 248 433 267 473 q 227 366 233 405 q 221 245 221 328 l 221 222 l 221 0 l 117 0 l 117 606 l 221 606 l 221 536 q 303 594 261 575 q 390 614 345 614 q 495 588 454 614 q 561 509 536 563 q 643 588 594 562 q 757 614 692 614 q 897 556 848 614 q 946 387 946 498 l 946 0 l 844 0 l 844 297 z "},"æ":{"ha":836,"x_min":135,"x_max":701,"o":"m 469 428 l 469 361 l 599 361 l 599 431 q 584 503 599 481 q 533 525 568 525 q 484 503 499 525 q 469 428 469 481 m 370 207 l 370 271 l 339 271 q 262 247 285 271 q 239 167 239 223 q 254 106 239 125 q 300 86 269 86 q 353 114 337 86 q 370 207 370 142 m 370 361 l 370 432 q 354 502 370 479 q 306 525 338 525 q 260 506 275 525 q 243 444 245 487 l 138 444 l 138 449 q 181 571 138 526 q 301 615 225 615 q 377 596 345 615 q 418 546 408 578 q 464 598 433 581 q 542 615 494 615 q 661 564 620 615 q 701 415 701 513 l 701 271 l 469 271 l 469 184 q 486 109 469 133 q 536 85 502 85 q 582 104 566 85 q 599 158 599 124 l 599 174 l 701 174 l 701 170 q 663 36 701 79 q 543 -8 624 -8 q 465 9 496 -8 q 419 62 434 27 q 371 8 403 26 q 293 -9 339 -9 q 175 36 216 -9 q 135 168 135 81 q 181 317 135 274 q 339 361 227 361 l 370 361 z "},"ø":{"ha":836,"x_min":132,"x_max":704,"o":"m 488 504 q 453 516 469 512 q 421 519 437 519 q 289 461 337 519 q 240 302 240 404 q 252 212 240 251 q 289 146 264 174 l 488 504 m 551 454 l 355 98 q 385 89 371 92 q 412 86 399 86 q 547 144 498 86 q 596 302 596 201 q 585 393 596 354 q 551 454 573 431 m 307 9 l 243 -107 l 149 -107 l 236 52 q 158 158 183 96 q 132 302 132 220 q 212 530 132 444 q 419 616 291 616 q 476 611 448 616 q 534 593 504 606 l 591 697 l 688 697 l 606 549 q 680 441 656 502 q 704 302 704 381 q 626 77 704 163 q 421 -9 547 -9 q 363 -5 392 -9 q 307 9 335 0 z "}," ":{"ha":836,"x_min":0,"x_max":0,"o":""},"“":{"ha":836,"x_min":184,"x_max":669,"o":"m 669 530 l 515 530 l 559 879 l 669 879 l 669 530 m 339 530 l 184 530 l 229 879 l 339 879 l 339 530 z "},"”":{"ha":836,"x_min":184,"x_max":669,"o":"m 184 879 l 339 879 l 296 530 l 184 530 l 184 879 m 515 879 l 669 879 l 625 530 l 515 530 l 515 879 z "},"‘":{"ha":836,"x_min":326,"x_max":510,"o":"m 326 879 l 510 879 l 482 460 l 354 460 l 326 879 z "},"’":{"ha":836,"x_min":326,"x_max":510,"o":"m 326 879 l 510 879 l 482 460 l 354 460 l 326 879 z "},"¤":{"ha":836,"x_min":66,"x_max":757,"o":"m 559 393 l 536 301 l 334 301 q 389 149 343 205 q 501 93 434 93 q 595 119 556 93 q 636 183 634 144 l 757 183 q 677 40 743 92 q 509 -12 612 -12 q 367 21 429 -12 q 267 118 305 54 q 230 200 245 151 q 208 301 214 250 l 66 301 l 92 393 l 201 393 q 200 414 201 402 q 200 449 200 426 q 200 469 200 458 q 203 500 201 479 l 79 500 l 103 591 l 211 591 q 313 804 231 722 q 511 885 395 885 q 679 834 616 885 q 754 692 743 784 l 632 692 q 595 759 629 735 q 504 783 562 783 q 397 732 442 783 q 336 591 353 681 l 612 591 l 589 500 l 328 500 q 326 467 326 479 q 325 444 325 454 q 325 412 325 422 q 326 393 326 402 l 559 393 z "},"Â":{"ha":2509,"x_min":4,"x_max":2504,"o":"m 4 432 l 2504 432 l 2504 271 l 4 271 l 4 432 z "},"Î":{"ha":836,"x_min":131,"x_max":710,"o":"m 595 260 l 595 810 l 710 810 l 710 235 q 664 43 710 100 q 515 -14 618 -14 q 463 -11 492 -14 q 396 0 434 -7 l 396 115 q 458 100 431 105 q 504 94 486 94 q 572 123 549 94 q 595 210 595 153 l 595 260 m 131 810 l 248 810 l 248 0 l 131 0 l 131 810 z "},"Ï":{"ha":836,"x_min":143,"x_max":693,"o":"m 143 876 l 296 876 l 296 739 l 143 739 l 143 876 m 167 606 l 271 606 l 271 0 l 167 0 l 167 606 m 539 876 l 693 876 l 693 739 l 539 739 l 539 876 m 668 606 l 668 40 q 621 -140 668 -82 q 473 -197 574 -197 l 346 -197 l 346 -98 l 433 -98 q 538 -63 510 -98 q 567 71 567 -28 l 567 606 l 668 606 z "},"Ó":{"ha":836,"x_min":189,"x_max":648,"o":"m 189 828 l 648 828 l 648 41 l 189 41 l 189 828 z "},"Ô":{"ha":836,"x_min":144,"x_max":692,"o":"m 144 -129 l 692 -129 l 692 -265 l 144 -265 l 144 -129 z "},"Ò":{"ha":836,"x_min":361,"x_max":476,"o":"m 361 850 l 476 850 l 476 -370 l 361 -370 l 361 850 z "},"ˆ":{"ha":836,"x_min":174,"x_max":663,"o":"m 328 873 l 511 873 l 663 688 l 528 688 l 418 804 l 310 688 l 174 688 l 328 873 z "},"˜":{"ha":836,"x_min":180,"x_max":656,"o":"m 410 741 l 379 762 q 356 774 369 770 q 332 778 344 778 q 301 762 312 778 q 290 717 290 746 l 180 717 l 180 720 q 220 838 180 793 q 321 884 259 884 q 375 875 350 884 q 427 847 399 867 l 457 825 q 479 813 467 817 q 504 810 491 810 q 535 825 524 810 q 547 872 546 841 l 656 872 l 656 869 q 616 750 656 796 q 515 704 577 704 q 461 712 486 704 q 410 741 437 721 z "},"¸":{"ha":836,"x_min":342,"x_max":525,"o":"m 422 22 l 525 22 l 469 -199 l 342 -199 l 422 22 z "},"∙":{"ha":836,"x_min":290,"x_max":546,"o":"m 290 458 l 546 458 l 546 254 l 290 254 l 290 458 z "},"":{"ha":836,"x_min":66,"x_max":757,"o":"m 559 393 l 536 301 l 334 301 q 389 149 343 205 q 501 93 434 93 q 595 119 556 93 q 636 183 634 144 l 757 183 q 677 40 743 92 q 509 -12 612 -12 q 367 21 429 -12 q 267 118 305 54 q 230 200 245 151 q 208 301 214 250 l 66 301 l 92 393 l 201 393 q 200 414 201 402 q 200 449 200 426 q 200 469 200 458 q 203 500 201 479 l 79 500 l 103 591 l 211 591 q 313 804 231 722 q 511 885 395 885 q 679 834 616 885 q 754 692 743 784 l 632 692 q 595 759 629 735 q 504 783 562 783 q 397 732 442 783 q 336 591 353 681 l 612 591 l 589 500 l 328 500 q 326 467 326 479 q 325 444 325 454 q 325 412 325 422 q 326 393 326 402 l 559 393 z "},"€":{"ha":836,"x_min":66,"x_max":757,"o":"m 559 393 l 536 301 l 334 301 q 389 149 343 205 q 501 93 434 93 q 595 119 556 93 q 636 183 634 144 l 757 183 q 677 40 743 92 q 509 -12 612 -12 q 367 21 429 -12 q 267 118 305 54 q 230 200 245 151 q 208 301 214 250 l 66 301 l 92 393 l 201 393 q 200 414 201 402 q 200 449 200 426 q 200 469 200 458 q 203 500 201 479 l 79 500 l 103 591 l 211 591 q 313 804 231 722 q 511 885 395 885 q 679 834 616 885 q 754 692 743 784 l 632 692 q 595 759 629 735 q 504 783 562 783 q 397 732 442 783 q 336 591 353 681 l 612 591 l 589 500 l 328 500 q 326 467 326 479 q 325 444 325 454 q 325 412 325 422 q 326 393 326 402 l 559 393 z "}}}
